<svg xmlns="http://www.w3.org/2000/svg" fill="none" viewBox="0 0 24 18" aria-hidden="true" focusable="false">
  <path fill="currentColor" d="M19.976 1.75a18.994 18.994 0 0 0-4.74-1.458c-.225.4-.427.812-.608 1.234a17.645 17.645 0 0 0-5.262 0c-.18-.422-.383-.834-.607-1.234-1.638.279-3.233.77-4.745 1.462-3 4.439-3.813 8.768-3.407 13.035a19.08 19.08 0 0 0 5.815 2.919c.471-.633.888-1.305 1.245-2.008a12.37 12.37 0 0 1-1.96-.936c.164-.119.325-.242.48-.361a13.67 13.67 0 0 0 11.626 0c.157.128.318.251.481.361-.626.37-1.284.684-1.965.938a13.86 13.86 0 0 0 1.245 2.006 19.017 19.017 0 0 0 5.82-2.917c.476-4.949-.817-9.238-3.418-13.041ZM8.183 12.165c-1.134 0-2.07-1.029-2.07-2.294 0-1.265.904-2.303 2.066-2.303s2.091 1.038 2.071 2.303c-.02 1.265-.912 2.294-2.067 2.294Zm7.634 0c-1.135 0-2.067-1.029-2.067-2.294 0-1.265.903-2.303 2.067-2.303 1.164 0 2.086 1.038 2.066 2.303-.02 1.265-.91 2.294-2.066 2.294Z"></path>
</svg>