<?xml version="1.0" encoding="UTF-8" standalone="no"?>
<!-- Uploaded to: SVG Repo, www.svgrepo.com, Generator: SVG Repo Mixer Tools -->

<svg
   width="800px"
   height="800px"
   viewBox="0 0 24 24"
   fill="none"
   version="1.1"
   id="svg311"
   sodipodi:docname="ai.svg"
   inkscape:version="1.2.2 (b0a8486541, 2022-12-01)"
   xmlns:inkscape="http://www.inkscape.org/namespaces/inkscape"
   xmlns:sodipodi="http://sodipodi.sourceforge.net/DTD/sodipodi-0.dtd"
   xmlns="http://www.w3.org/2000/svg"
   xmlns:svg="http://www.w3.org/2000/svg">
  <defs
     id="defs315" />
  <sodipodi:namedview
     id="namedview313"
     pagecolor="#ffffff"
     bordercolor="#000000"
     borderopacity="0.25"
     inkscape:showpageshadow="2"
     inkscape:pageopacity="0.0"
     inkscape:pagecheckerboard="0"
     inkscape:deskcolor="#d1d1d1"
     showgrid="false"
     inkscape:zoom="1.0575"
     inkscape:cx="391.96217"
     inkscape:cy="400.47281"
     inkscape:window-width="1920"
     inkscape:window-height="1000"
     inkscape:window-x="1920"
     inkscape:window-y="40"
     inkscape:window-maximized="1"
     inkscape:current-layer="svg311" />
  <path
     d="M9 15C8.44771 15 8 15.4477 8 16C8 16.5523 8.44771 17 9 17C9.55229 17 10 16.5523 10 16C10 15.4477 9.55229 15 9 15Z"
     fill="#0F0F0F"
     id="path301"
     style="fill:#0580da;fill-opacity:1" />
  <path
     d="M14 16C14 15.4477 14.4477 15 15 15C15.5523 15 16 15.4477 16 16C16 16.5523 15.5523 17 15 17C14.4477 17 14 16.5523 14 16Z"
     fill="#0F0F0F"
     id="path303"
     style="fill:#0580da;fill-opacity:1" />
  <path
     fill-rule="evenodd"
     clip-rule="evenodd"
     d="M12 1C10.8954 1 10 1.89543 10 3C10 3.74028 10.4022 4.38663 11 4.73244V7H6C4.34315 7 3 8.34315 3 10V20C3 21.6569 4.34315 23 6 23H18C19.6569 23 21 21.6569 21 20V10C21 8.34315 19.6569 7 18 7H13V4.73244C13.5978 4.38663 14 3.74028 14 3C14 1.89543 13.1046 1 12 1ZM5 10C5 9.44772 5.44772 9 6 9H7.38197L8.82918 11.8944C9.16796 12.572 9.86049 13 10.618 13H13.382C14.1395 13 14.832 12.572 15.1708 11.8944L16.618 9H18C18.5523 9 19 9.44772 19 10V20C19 20.5523 18.5523 21 18 21H6C5.44772 21 5 20.5523 5 20V10ZM13.382 11L14.382 9H9.61803L10.618 11H13.382Z"
     fill="#0F0F0F"
     id="path305"
     style="fill:#0580da;fill-opacity:1" />
  <path
     d="M1 14C0.447715 14 0 14.4477 0 15V17C0 17.5523 0.447715 18 1 18C1.55228 18 2 17.5523 2 17V15C2 14.4477 1.55228 14 1 14Z"
     fill="#0F0F0F"
     id="path307"
     style="fill:#0580da;fill-opacity:1" />
  <path
     d="M22 15C22 14.4477 22.4477 14 23 14C23.5523 14 24 14.4477 24 15V17C24 17.5523 23.5523 18 23 18C22.4477 18 22 17.5523 22 17V15Z"
     fill="#0F0F0F"
     id="path309"
     style="fill:#0580da;fill-opacity:1" />
</svg>
